PathFileType	4	(X/Y/Z)	/Users/mathieubourgeois/Desktop/Analyse/Traitement/Sujet_03/Data/Transformed_Sujet_03_velo_60.trc
DataRate	CameraRate	NumFrames	NumMarkers	Units	OrigDataRate	OrigDataStartFrame	OrigNumFrames
120.000000	120.000000	5	36	mm	120.000000	1158	1854
Frame#	Time	RFHD			LFHD			RBHD			LBHD			C7			CLAV			RSHO			LSHO			STRN			T10			RBWT			LBWT			RFWT			LFWT			RKNI			LKNI			RKNE			LKNE			LANI			RANI			LANE			RANE			LTOE			RTOE			LHEE			RHEE			RHUM			LHUM			RRAD			LRAD			RWRA			RWRB			LWRA			LWRB			LCAR			RCAR			
		X1	Y1	Z1	X2	Y2	Z2	X3	Y3	Z3	X4	Y4	Z4	X5	Y5	Z5	X6	Y6	Z6	X7	Y7	Z7	X8	Y8	Z8	X9	Y9	Z9	X10	Y10	Z10	X11	Y11	Z11	X12	Y12	Z12	X13	Y13	Z13	X14	Y14	Z14	X15	Y15	Z15	X16	Y16	Z16	X17	Y17	Z17	X18	Y18	Z18	X19	Y19	Z19	X20	Y20	Z20	X21	Y21	Z21	X22	Y22	Z22	X23	Y23	Z23	X24	Y24	Z24	X25	Y25	Z25	X26	Y26	Z26	X27	Y27	Z27	X28	Y28	Z28	X29	Y29	Z29	X30	Y30	Z30	X31	Y31	Z31	X32	Y32	Z32	X33	Y33	Z33	X34	Y34	Z34	X35	Y35	Z35	X36	Y36	Z36	

1159	9.65	149.8161468505859	1561.953735351562	112.6734771728515	134.1427917480469	1559.112670898438	-39.9635429382325	39.9336814880371	1635.424560546875	126.0590744018554	16.26725387573243	1649.013793945312	-21.12137794494638	-111.9039916992188	1557.27490234375	49.54608917236317	-81.08053588867188	1403.865478515625	44.94966506957999	-54.79899215698245	1476.326293945312	223.8601531982421	-82.12509155273436	1503.407958984375	-142.185531616211	-179.0506134033203	1266.475830078125	41.18220138549795	-329.3021850585938	1458.5693359375	49.24019622802721	-520.4146728515625	1259.106689453125	122.94571685791	-525.6491088867188	1258.229125976562	-0.2526654005052074	-367.9214782714844	1194.894653320312	179.0107574462889	-374.8305969238281	1184.618530273438	-64.19911956787121	-84.95166015625001	772.05615234375	130.1408081054687	-98.67150115966795	783.0532836914062	-72.23423767089849	-104.4320755004883	815.7208251953125	244.5121612548828	-103.8246383666992	825.4349975585938	-182.0609893798829	-393.7063293457031	551.9286499023438	-46.63171005249032	-143.3195037841797	403.1311340332031	122.8053512573242	-423.7828674316406	536.9842529296875	-132.0836181640626	-171.4221954345703	382.5935363769531	210.3504486083984	-307.6073608398438	365.917724609375	-82.24076080322273	18.15096473693846	283.7387084960938	146.5871429443359	-490.0230712890625	562.0877075195312	-89.27801513671884	-240.3838806152344	360.8829956054688	163.6578063964843	28.81275558471677	1185.32177734375	228.5074310302734	6.665179729461688	1196.737915039062	-144.1973876953126	80.17903137207028	1208.364135742188	286.5326232910156	55.42431259155276	1229.7353515625	-201.2461090087891	294.2474365234375	1048.017333984375	212.5933380126953	270.9792175292968	1032.895141601562	290.6387634277344	246.7154846191407	1060.3349609375	-125.9621124267579	225.1334686279297	1044.438354492188	-202.1180267333985	321.5677185058594	1032.451538085938	-221.9747467041016	372.0906982421874	1010.977783203125	306.25634765625	
1160	9.658333333333333	149.9973602294922	1562.014404296875	111.8468933105468	134.3029022216797	1559.121337890625	-40.76696395874031	40.12686538696288	1635.513305664062	125.2602539062499	16.4411678314209	1649.068725585938	-21.95550346374521	-111.7532424926758	1557.31982421875	48.84854507446278	-80.79598236083984	1403.932250976562	44.26448059082022	-54.520622253418	1476.466430664062	223.1571044921874	-82.11147308349608	1503.471557617188	-142.911849975586	-178.6125030517578	1266.5166015625	40.57700729370107	-329.1045837402344	1458.470825195312	48.77253723144518	-520.017822265625	1258.958129882812	122.9905319213866	-525.46435546875	1258.199584960938	-0.2310338020326121	-367.5623474121094	1194.501098632812	178.902633666992	-374.6508178710938	1184.620849609375	-64.32671356201183	-91.94556427001955	763.8231201171875	130.2041015624999	-93.79125213623045	789.3859252929688	-73.00318145751959	-110.0943298339844	808.2529296875	244.6268615722656	-99.23365783691403	831.771484375	-182.3318328857422	-390.2369689941406	560.6421508789062	-46.23887634277352	-146.4446105957032	394.7247619628906	122.8454666137695	-420.4197692871094	545.7067260742188	-131.7146453857423	-174.7070465087891	374.2216186523438	210.3304138183593	-303.8949279785156	375.1377868652344	-82.37783050537116	14.83746051788328	274.9018859863281	146.5011901855468	-487.2117919921875	570.8475341796875	-88.08143615722665	-243.4662475585938	352.6535339355469	163.6803894042968	28.78582191467282	1185.284423828125	228.6427459716796	6.691114425659197	1196.795043945312	-144.441635131836	80.16619110107419	1208.395141601562	286.5819091796874	55.48419570922854	1229.71923828125	-201.4647216796876	294.2336120605469	1048.034057617188	212.6522521972656	270.9539489746093	1032.86669921875	290.7037658691406	246.7168426513672	1060.368041992188	-125.9614028930664	225.1687316894532	1044.42138671875	-202.117431640625	321.5748291015625	1032.444458007812	-221.9513702392578	372.0634765624999	1010.955139160156	306.2967224121094	
1161	9.666666666666666	150.1810302734375	1562.083618164062	111.005760192871	134.392578125	1559.130981445312	-41.6226119995118	40.3583297729492	1635.612915039062	124.4248428344726	16.60213279724121	1649.121704101562	-22.72576141357431	-111.6188049316406	1557.380493164062	48.0837173461913	-80.59194183349609	1404.019165039062	43.56775283813467	-54.30572891235354	1476.569213867188	222.4901733398437	-82.12508392333983	1503.541259765625	-143.5170440673829	-178.2263488769531	1266.460083007812	39.97999572753896	-328.928466796875	1458.371337890625	48.35945892333971	-519.6429443359375	1258.83544921875	123.0177764892577	-525.2960205078125	1258.158325195312	-0.2013622969390376	-367.2305908203125	1194.04541015625	178.7457122802733	-374.4688415527344	1184.641357421875	-64.50451660156261	-97.26039886474611	756.1296997070312	130.0341644287109	-85.16329956054686	798.7096557617188	-73.72793579101568	-115.8369903564453	801.0425415039062	244.676773071289	-94.77045440673825	838.2796020507812	-182.5513305664063	-386.4143371582031	569.1043090820312	-45.91966629028329	-150.0611267089844	386.6275024414062	122.9518051147461	-416.7589721679688	554.2372436523438	-131.2830963134766	-178.374496459961	366.1754455566406	210.3761901855468	-300.0434875488281	383.7490539550781	-81.99061584472663	10.97795581817625	266.2301025390625	146.3901214599609	-483.7053833007812	579.3795166015625	-87.3800811767579	-246.9805145263672	344.7801208496094	163.7950897216796	28.71697425842282	1185.223388671875	228.6652069091796	6.717319965362567	1196.840087890625	-144.6552124023438	80.12408447265622	1208.43701171875	286.5928649902343	55.55661773681643	1229.710571289062	-201.6819763183595	294.168701171875	1048.041381835938	212.6953430175781	270.9044799804687	1032.82958984375	290.7457275390625	246.7002716064453	1060.373413085938	-126.0104293823243	225.163330078125	1044.4091796875	-202.1488494873047	321.5961303710938	1032.437255859375	-221.9778747558594	372.0285339355468	1010.933532714844	306.2984008789062	
1162	9.675000000000001	150.3474731445312	1562.169067382812	110.1471328735351	134.531494140625	1559.169189453125	-42.43948745727547	40.56868743896483	1635.73388671875	123.6023559570312	16.74499702453614	1649.197998046875	-23.61306381225596	-111.5050735473633	1557.420654296875	47.38750076293935	-80.33218383789062	1404.091674804688	42.86422729492178	-54.35091400146487	1476.294067382812	221.9900512695312	-82.09584808349608	1503.655029296875	-144.2093200683595	-177.9288024902344	1266.44677734375	39.31293106079092	-328.7459411621094	1458.273193359375	47.89598464965807	-519.2453002929688	1258.692749023438	123.0308303833007	-525.1244506835938	1258.151000976562	-0.2097016423942072	-366.9399108886719	1193.57568359375	178.6092376708983	-374.2738037109375	1184.686279296875	-64.72793579101574	-101.5680770874024	748.7969360351562	129.7944793701171	-81.4216842651367	805.050048828125	-73.3067245483399	-121.6408309936524	794.0742797851562	244.6480712890624	-90.30224609374997	844.9332885742188	-182.6371002197266	-382.3145446777344	577.2963256835938	-45.60461425781259	-155.2763366699219	379.6397705078125	122.7163009643554	-412.8107299804688	562.4716186523438	-130.9020538330079	-182.2223663330078	358.4939575195312	209.9983520507812	-295.6705932617188	392.3658447265625	-81.94782257080085	6.734588623046857	257.7077026367188	146.2823638916015	-479.8521423339844	587.4629516601562	-86.81139373779307	-250.8401947021485	337.2905578613281	163.9347381591796	28.64693832397458	1185.20654296875	228.7046356201171	6.754055023193377	1196.9130859375	-144.8554687500001	80.07019042968747	1208.501953125	286.5520324707031	55.60844421386721	1229.719970703125	-201.9207916259766	294.089599609375	1048.055541992188	212.662368774414	270.8665466308593	1032.830078125	290.7069091796875	246.7113189697266	1060.381591796875	-126.0848159790039	225.1604461669922	1044.374877929688	-202.245101928711	321.5897827148438	1032.418334960938	-222.0478515625	371.9808349609374	1010.927978515625	306.2580261230469	
1163	9.683333333333334	150.5474395751953	1562.284790039062	109.2526779174804	134.6082305908203	1559.201293945312	-43.35716247558602	40.79230880737303	1635.848999023438	122.7403869628905	16.87149429321289	1649.262329101562	-24.43193626403818	-111.3583297729492	1557.494506835938	46.62496185302724	-80.07126617431641	1404.168334960938	42.21585845947256	-54.19735336303714	1476.400756835938	221.3483276367187	-82.08163452148436	1503.725708007812	-144.8709564208985	-177.6923828125	1266.461669921875	38.72474670410146	-328.5679321289062	1458.193603515625	47.43501663207994	-518.876953125	1258.5830078125	123.0545425415038	-524.9443359375	1258.176513671875	-0.2108060419560892	-366.6634216308594	1193.044921875	178.4227752685545	-374.0927429199219	1184.73779296875	-64.94052886962902	-107.6432647705078	741.6182861328125	129.6814880371093	-76.90029907226561	811.9613647460938	-73.12448883056646	-127.5552139282227	787.4185180664062	244.6578521728515	-85.86576080322263	851.8076782226562	-182.6043853759766	-377.9698791503906	585.192138671875	-45.25946044921884	-158.2032165527344	371.3314514160156	123.0240936279296	-408.8372497558594	570.5331420898438	-130.9823760986329	-185.9337615966797	350.7117919921875	209.0980224609374	-291.3972778320312	400.8208312988281	-81.56951141357429	1.996149063110334	249.3687286376953	146.2432556152343	-475.7363586425781	595.1373291015625	-86.24749755859385	-255.0867767333985	330.1999206542969	164.1172485351562	28.57354736328122	1185.178833007812	228.6932373046874	6.790828704834002	1196.955200195312	-145.0600891113282	80.04520416259763	1208.577026367188	286.4674682617187	55.66487884521487	1229.727416992188	-202.2064208984376	294.0337524414062	1048.078979492188	212.5715942382812	270.8610839843749	1032.856201171875	290.62109375	246.6738739013672	1060.355590820312	-126.2099075317383	225.141830444336	1044.341186523438	-202.359619140625	321.5665893554688	1032.384887695312	-222.1549682617188	371.9554443359374	1010.947875976562	306.1462707519531	
